<svg id="Layer_1" data-name="Layer 1" xmlns="http://www.w3.org/2000/svg" viewBox="0 0 918.58 432.05"><defs><style>.cls-1{fill:#3f3d56;}.cls-2{fill:#ccc;}.cls-3{fill:#fff;}.cls-4{fill:#536dfe;}.cls-5{fill:#e6e6e6;}.cls-6{fill:#ffb8b8;}.cls-7{fill:#2f2e41;}.cls-8{opacity:0.1;isolation:isolate;}</style></defs><path class="cls-1" d="M187.73,305.3a10.1,10.1,0,0,0-10.08,10.09V339a10.1,10.1,0,0,0,10.08,10.09h12.8A10.1,10.1,0,0,0,210.61,339V315.39a10.1,10.1,0,0,0-10.08-10.09Z"/><path class="cls-1" d="M424.2,349.85H411.41A10.88,10.88,0,0,1,400.54,339V315.39a10.88,10.88,0,0,1,10.87-10.87H424.2a10.87,10.87,0,0,1,10.87,10.87V339A10.87,10.87,0,0,1,424.2,349.85Z"/><path class="cls-2" d="M415.72,331H195.44c-10,0-18.19-5.91-18.19-13.17V275.43l10.94-11.52h236.9l8.81,11.54v42.34C433.9,325.05,425.74,331,415.72,331Z"/><path class="cls-2" d="M424.06,285.1H189.44l-2.38-36.55,1.52-3.75,8.82-21.7H414.52l11.93,24.65Z"/><polygon class="cls-3" points="426.05 247.82 424.3 275.29 372.68 275.29 372.68 254.89 424.58 244.79 426.05 247.82"/><polygon class="cls-3" points="240.04 254.89 240.04 275.29 189.2 275.29 187.46 248.61 188.94 244.95 240.04 254.89"/><path class="cls-2" d="M413.21,229.38H198.7l22.88-76.26a15.31,15.31,0,0,1,14.59-11l142.06-1.35a15.37,15.37,0,0,1,15,11.52Z"/><path class="cls-3" d="M396.7,222.17,215.18,220a1.47,1.47,0,0,1-1.45-1.49,1.61,1.61,0,0,1,.07-.43l17.4-54.29a1.47,1.47,0,0,1,1.4-1h146a1.47,1.47,0,0,1,1.4,1l18.11,56.44a1.46,1.46,0,0,1-.94,1.85A1.49,1.49,0,0,1,396.7,222.17Z"/><path class="cls-4" d="M330.42,150.11H281.5c-.42,0-.79-.4-1-1.06a3.28,3.28,0,0,1,.08-2l4-10.2c.21-.52.54-.84.9-.84h40.86c.35,0,.69.32.89.84l4,10.2a3.28,3.28,0,0,1,.08,2C331.21,149.71,330.83,150.11,330.42,150.11Z"/><path class="cls-2" d="M198.84,227.81H166.66v-7.07a8.64,8.64,0,0,1,8.62-8.63h23.56Z"/><path class="cls-2" d="M445.28,227.81H413.1v-15.7h23.55a8.65,8.65,0,0,1,8.63,8.63Z"/><rect class="cls-1" x="1" y="366.26" width="167.15" height="1.98" transform="translate(-119.18 50.22) rotate(-19.76)"/><rect class="cls-1" x="525.39" y="283.67" width="1.98" height="167.15" transform="translate(2.83 738.52) rotate(-70.25)"/><path class="cls-5" d="M314.71,379h-9.42V366.88h9.42Zm0-24.32h-9.42V342.56h9.42Z"/><path class="cls-5" d="M314.71,429.43h-9.42V417.26h9.42Zm0-24.33h-9.42V392.94h9.42Z"/><polygon class="cls-6" points="728.45 387.41 718.08 387.41 713.14 347.41 728.45 347.41 728.45 387.41"/><path class="cls-7" d="M731.09,397.47H697.65V397a13,13,0,0,1,13-13h20.42Z"/><polygon class="cls-6" points="862.18 367.76 853.29 373.1 828.46 341.36 841.58 333.47 862.18 367.76"/><path class="cls-7" d="M841,392.24l-.22-.36A13,13,0,0,1,845.2,374l17.5-10.51L869.62,375Z"/><path class="cls-7" d="M731.14,379.16H731a140.91,140.91,0,0,1-15.09-.87c-1.92-.19-4-.4-6.49-.6l-.08,0c-1.71-.5-1.75-16.48-1-71.19.37-28,.79-59.77.29-80v-.2l.15-.13c18.5-16.09,42.26-22.13,66.9-17l.18,0,.1.16c10.19,17.25,25.58,42.09,40.46,66.11,34.17,55.15,43.94,71.37,42.87,72.59l-.13.1c-2.33,1.17-4.09,2.07-5.58,2.83-5,2.56-7,3.61-18.14,8.18l-.27.11-.2-.21c-34.66-38-63.51-80.42-81.35-119.65-2.09,13.4-4.62,30.88-7.29,49.36-7.69,53.13-12.89,88.11-15,90.24Z"/><path class="cls-7" d="M785,56.86c3.49-14.41,6.45-30.67-.13-43.95-4.57-9.21-21.47-12.31-31.16-9S737,16.24,733.92,26.06s-2.72,20.39-1.38,30.6C750.36,56.31,768.17,56,785,56.86Z"/><circle class="cls-6" cx="754.92" cy="36.08" r="20.78"/><path class="cls-7" d="M780.32,31.8a26.1,26.1,0,0,0-52.19-1c0,.55,0,1.11,0,1.67C745.94,32.53,763.72,32.56,780.32,31.8Z"/><path class="cls-1" d="M740.48,230.57a181.63,181.63,0,0,1,60.72,10.17c.68-32.75-10.6-65.56-31-90.11l-.16-.18.08-.23c5.45-15.73,11.08-32,16.11-48.18l-.08-.27C782.64,89.23,775.07,76.56,763,63a7.41,7.41,0,0,0-10.12-.51c-21.41,19.63-33,49-30.38,76.76v.08l0,.08c-9.43,31.95-12.85,48.37-15.87,62.85-2.21,10.56-4.12,19.71-8,32.78A197.21,197.21,0,0,1,740.48,230.57Z"/><polygon class="cls-8" points="770.91 129.55 740.23 196.36 722.7 178.61 770.91 129.55"/><path class="cls-1" d="M702,166.66l2.14,4.15a.16.16,0,0,1-.07.22l-.11.06,11.15,21.65a2.55,2.55,0,0,1-1.1,3.43l-13.53,7a2.54,2.54,0,0,1-3.42-1.1h0l-10.76-20.89-.07,0a.14.14,0,0,1-.16-.05l-1.21-2.37a.12.12,0,0,1,.05-.16h0l.07,0-.46-.89-.07,0a.13.13,0,0,1-.17-.05l-1.2-2.33a.13.13,0,0,1,0-.16l.08,0-.63-1.22-.07,0a.11.11,0,0,1-.15,0h0l-.65-1.27a.1.1,0,0,1,0-.14l.08,0-1.33-2.58a2.54,2.54,0,0,1,1.1-3.42l13.53-7a2.54,2.54,0,0,1,3.42,1.1l3.12,6.06.11,0A.17.17,0,0,1,702,166.66Z"/><path class="cls-4" d="M697.74,161.58l16.42,31.91a1.61,1.61,0,0,1-.69,2.17l-13,6.67a1.62,1.62,0,0,1-2.17-.7h0l-16.42-31.91a1.6,1.6,0,0,1,.7-2.17h0l1.94-1,.12.25a1.33,1.33,0,0,0,1.79.58h0l6.59-3.39a1.33,1.33,0,0,0,.57-1.79l-.13-.25,2.07-1.06a1.61,1.61,0,0,1,2.17.69Z"/><path class="cls-6" d="M702.5,200.56a8.51,8.51,0,0,0,7.9-9.07,9.44,9.44,0,0,0-.24-1.49l25.29-16.56L721,167.21l-21.8,16.68a8.55,8.55,0,0,0,3.27,16.67Z"/><path class="cls-1" d="M726.83,188.63l-.32-.23c-6-4.43-12.7-9-19.16-13.44l-.39-.26.31-.36c13.79-16.13,27.59-33,41-49.29l0-.06.13-.06,0-.07,0,0,.08,0-.37,0L744,92.6c-3.72-5.07-4.43-15.14.44-22.16,5-7.28,15.72-9.72,22.85-5.22a15,15,0,0,1,6.58,11.19,13.5,13.5,0,0,1-3.58,11.07c1.75,17.08,1.81,32.35,1.88,47.12v.15l-.09.12c-14.24,18.08-29.87,36.07-45,53.46Z"/><circle class="cls-4" cx="305.68" cy="53.81" r="46.72"/><polygon class="cls-3" points="301.23 73.53 287.25 55.55 295.38 49.22 302 57.74 324.37 34.13 331.85 41.21 301.23 73.53"/><path class="cls-1" d="M912,398.75H675.92a1,1,0,1,1,0-2H912a1,1,0,1,1,0,2Z"/></svg>