<svg id="Layer_1" data-name="Layer 1" xmlns="http://www.w3.org/2000/svg" viewBox="0 0 1058 747.89"><defs><style>.cls-1{fill:#e4e4e4;}.cls-2{fill:#d1e8f2;}.cls-3{fill:#dce7ef;}.cls-4{fill:#fff;}.cls-5{fill:#a0616a;}.cls-6{fill:#d32dac;}.cls-7{fill:#3f3d56;}.cls-8{fill:#71b5e2;}.cls-9{fill:#2f2e41;}.cls-10{fill:#9f616a;}.cls-11{fill:#f9ce43;}</style></defs><path class="cls-1" d="M449.47,318.91a50,50,0,0,1-4.75-4l2-2.19a49.62,49.62,0,0,0,4.47,3.73Z"/><path class="cls-2" d="M436.07,304.08a50.38,50.38,0,0,1-5.38-11.81l2.86-.88a47.24,47.24,0,0,0,5.06,11.11Zm-7.58-24.6c0-.71,0-1.42,0-2.12a50.34,50.34,0,0,1,1.17-10.81l2.92.64a47.63,47.63,0,0,0-1.1,10.17c0,.66,0,1.33,0,2Zm8.19-23.77L434,254.34a51,51,0,0,1,4.25-6.87,41.14,41.14,0,0,1,3.18-3.81l2.18,2.05a38,38,0,0,0-2.95,3.53,48.34,48.34,0,0,0-4,6.47Zm16.54-17.35-1.41-2.64a40.65,40.65,0,0,1,12.35-4.24l.5,3A37.5,37.5,0,0,0,453.22,238.36Zm35-.33a37.35,37.35,0,0,0-11.5-3.72l.45-3a40.36,40.36,0,0,1,12.42,4Z"/><path class="cls-1" d="M501.89,250.49a30.3,30.3,0,0,0-3.39-4.58l2.23-2a32.92,32.92,0,0,1,3.73,5Z"/><path class="cls-1" d="M386.89,218.58l-2.42-1.78c1.2-1.63,2.46-3.24,3.76-4.79l2.3,1.92C389.28,215.43,388.05,217,386.89,218.58Z"/><path class="cls-2" d="M534.82,214.59a74,74,0,0,0-7.61-9l2.12-2.11a77.58,77.58,0,0,1,7.92,9.34Zm-136.4-9.77-2-2.19a95.79,95.79,0,0,1,9.44-7.73l1.75,2.43A91.34,91.34,0,0,0,398.42,204.82Zm119.86-6.9a95,95,0,0,0-9.95-6.39l1.46-2.61a97.72,97.72,0,0,1,10.26,6.59Zm-100.69-6.87-1.43-2.63a97.56,97.56,0,0,1,11.08-5.13l1.08,2.79A94,94,0,0,0,417.59,191.05Zm80.07-4.62a94.45,94.45,0,0,0-11.22-3.71l.75-2.9a100.13,100.13,0,0,1,11.59,3.83Zm-58.07-3.94-.72-2.9a97.65,97.65,0,0,1,12-2.22l.36,3a97.9,97.9,0,0,0-11.63,2.15Zm35.24-2a94.94,94.94,0,0,0-11.8-.8v-3a99.14,99.14,0,0,1,12.18.82Z"/><path class="cls-1" d="M544.09,230.58c-.74-1.81-1.56-3.61-2.44-5.35l2.69-1.35c.91,1.81,1.76,3.69,2.52,5.57Z"/><path class="cls-1" d="M552.31,406.88l-1-2.82c1.85-.68,3.71-1.4,5.53-2.15l1.15,2.77C556.1,405.45,554.2,406.19,552.31,406.88Z"/><path class="cls-2" d="M504.93,414.91l-.11-3c3.88-.14,7.8-.44,11.66-.89l.34,3C512.89,414.46,508.89,414.76,504.93,414.91Zm-11.93,0c-4-.17-8-.49-11.88-1l.36-3c3.84.47,7.76.79,11.65.95Zm35.6-2.7-.57-2.93c3.81-.75,7.64-1.66,11.38-2.7l.8,2.88C536.39,410.49,532.49,411.41,528.6,412.17ZM469.34,412c-3.88-.79-7.78-1.75-11.58-2.84l.83-2.88c3.73,1.08,7.55,2,11.35,2.79Zm-22.9-6.59c-3.71-1.39-7.41-3-11-4.64l1.27-2.71c3.51,1.65,7.14,3.18,10.77,4.55Zm-21.57-10.13c-3.43-2-6.84-4.08-10.12-6.31l1.68-2.48c3.22,2.19,6.55,4.27,9.92,6.19Z"/><path class="cls-1" d="M405.43,382.86c-1.57-1.28-3.12-2.61-4.61-4l2-2.23c1.46,1.32,3,2.62,4.5,3.86Z"/><path class="cls-1" d="M322.38,80.37l-1.54-2.57c1.72-1,3.48-2,5.22-3l1.47,2.62C325.81,78.35,324.08,79.35,322.38,80.37Z"/><path class="cls-2" d="M610.25,121.11c-2.57-3-5.26-5.93-8-8.75l2.14-2.09c2.8,2.86,5.54,5.86,8.14,8.89Zm-16.58-17c-2.92-2.63-6-5.21-9.07-7.66l1.86-2.34c3.14,2.48,6.24,5.1,9.21,7.78Zm-18.6-14.75c-3.24-2.27-6.57-4.48-9.9-6.58l1.6-2.53c3.37,2.12,6.74,4.37,10,6.67ZM555,76.74c-3.44-1.92-7-3.79-10.51-5.54l1.33-2.68c3.58,1.77,7.16,3.66,10.64,5.61Zm-217-5L336.64,69c3.57-1.78,7.24-3.49,10.91-5.09l1.19,2.74c-3.61,1.58-7.24,3.27-10.77,5Zm195.7-5.49c-3.62-1.56-7.33-3.06-11-4.43l1-2.8c3.75,1.39,7.5,2.9,11.17,4.49Zm-173.91-4-1.05-2.8c3.73-1.4,7.56-2.73,11.37-3.95L371,58.3c-3.77,1.2-7.54,2.52-11.23,3.9Zm151.65-4.28c-3.76-1.18-7.6-2.28-11.42-3.27l.75-2.9c3.87,1,7.76,2.12,11.57,3.32ZM382.4,55l-.76-2.89c3.86-1,7.8-2,11.72-2.77l.61,2.92c-3.86.82-7.76,1.74-11.57,2.74Zm106-3c-3.86-.79-7.79-1.49-11.7-2.08l.45-3c3.95.6,7.94,1.31,11.85,2.11ZM405.66,50.1l-.46-3c3.94-.62,8-1.15,11.94-1.57l.31,3c-3.93.42-7.89.94-11.79,1.55Zm59.26-1.69c-3.92-.39-7.91-.69-11.85-.88l.14-3c4,.19,8,.49,12,.88Zm-35.62-.8-.16-3c4-.21,8-.33,12-.34v3c-3.94,0-7.94.12-11.88.34Z"/><path class="cls-1" d="M622.18,135.49c-1.14-1.61-2.32-3.23-3.5-4.81l2.4-1.8c1.2,1.6,2.4,3.25,3.55,4.89Z"/><path class="cls-1" d="M485.57,620.64q-3-.39-6-.82l.43-3c2,.29,4,.56,5.92.81Z"/><path class="cls-2" d="M467,616.1c-4-.72-8.05-1.52-12-2.37l.63-2.93c3.94.85,8,1.64,11.93,2.35ZM443,611c-4-1-7.94-2.06-11.84-3.18l.82-2.87c3.87,1.1,7.82,2.16,11.74,3.14Zm-23.57-6.75c-3.88-1.25-7.78-2.58-11.6-4l1-2.81c3.79,1.36,7.66,2.68,11.51,3.93Zm-23.06-8.31c-3.78-1.51-7.58-3.1-11.31-4.74l1.2-2.73c3.7,1.62,7.47,3.2,11.22,4.69Zm-22.45-9.85c-3.67-1.76-7.36-3.6-11-5.48l1.38-2.65c3.57,1.86,7.23,3.69,10.87,5.44Zm-21.74-11.33c-3.53-2-7.08-4.08-10.57-6.2l1.56-2.56c3.45,2.11,7,4.18,10.48,6.16ZM331.25,562c-3.4-2.23-6.81-4.55-10.14-6.89l1.73-2.45c3.3,2.32,6.68,4.62,10.05,6.84Zm-20-14.13c-3.26-2.47-6.49-5-9.63-7.62l1.91-2.3c3.1,2.56,6.3,5.1,9.52,7.54Zm-18.92-15.63c-3-2.72-6.05-5.55-9-8.39l2.09-2.14c2.88,2.82,5.87,5.61,8.87,8.31Zm-17.56-17.15c-2.79-3-5.56-6-8.22-9.11l2.26-2c2.64,3.05,5.38,6.08,8.14,9ZM258.68,496.5c-2.54-3.2-5-6.49-7.43-9.78l2.42-1.76c2.37,3.26,4.84,6.52,7.35,9.68Z"/><path class="cls-2" d="M244.21,476.59c-1.11-1.67-2.21-3.35-3.28-5l2.53-1.6q1.59,2.51,3.24,5Z"/><path class="cls-3" d="M885.74,129.79l-37.39,34.43,29.72-49.86c-23.41-42.46-61.7-79.15-61.7-79.15s-79.44,76.11-79.44,135.93,35.56,80.72,79.44,80.72S895.8,231,895.8,171.14C895.8,157.83,891.86,143.7,885.74,129.79Z"/><path class="cls-4" d="M838.74,166.08V169c-.18,34.28-6,61-17.3,79.85-.16.28-.34.54-.5.82l-1.27-.77-1.21-.76c12.58-20.34,17-49.08,17.2-79,0-1,0-1.94,0-2.92,0-12.66-.82-25.46-2.06-37.9-.09-1-.19-1.94-.29-2.92-1.72-16.41-4.2-32.09-6.74-45.71-.18-1-.37-1.92-.56-2.87-4.39-23-8.88-39.72-9.9-43.42-.11-.45-.19-.7-.2-.76l1.39-.39v0l1.4-.39c0,.06.26.89.67,2.44C821,40.11,825,55.8,829,76.5c.17.94.36,1.9.54,2.86,2.07,11.06,4.1,23.41,5.71,36.37q.62,4.89,1.09,9.64c.12,1,.22,1.95.31,2.91Q838.66,148.45,838.74,166.08Z"/><path class="cls-4" d="M829,76.5c-1,.13-2,.27-3,.37a80.71,80.71,0,0,1-8.23.42,78.28,78.28,0,0,1-33.87-7.65L782.06,72a81.33,81.33,0,0,0,35.73,8.23,83.35,83.35,0,0,0,8.79-.47c1-.1,2-.23,3-.38a80.18,80.18,0,0,0,23.28-7L851,70A78.16,78.16,0,0,1,829,76.5Z"/><path class="cls-4" d="M836.34,125.37c-1,0-2,.08-3,.08-.31,0-.63,0-.93,0A78.76,78.76,0,0,1,767.74,91.7c-.58.86-1.17,1.72-1.73,2.6a81.67,81.67,0,0,0,66.38,34.09c.4,0,.81,0,1.22,0,1,0,2,0,3-.08a81.19,81.19,0,0,0,43.28-15.19q-.69-1.29-1.41-2.58A78.21,78.21,0,0,1,836.34,125.37Z"/><path class="cls-4" d="M838.74,166.08c-1,.09-2,.15-3.07.19s-2.19.07-3.28.07a79,79,0,0,1-75.71-56.81c-.66,1.18-1.32,2.35-1.94,3.53a81.85,81.85,0,0,0,77.65,56.2c1.09,0,2.19,0,3.27-.07s2.05-.09,3.08-.16a81.62,81.62,0,0,0,53.87-26.29c-.31-1.08-.66-2.15-1-3.23A78.72,78.72,0,0,1,838.74,166.08Z"/><path class="cls-3" d="M120.38,153.63l24.39,44.59-41.23-40.86c-46.85,12.48-91.69,40.78-91.69,40.78S66.55,293.6,124.61,308s86.91-15,97.49-57.63-1.11-82.13-59.17-96.56C150,150.63,135.35,151.05,120.38,153.63Z"/><path class="cls-4" d="M144.25,208l2.87.71c33.22,8.44,57.78,20.5,73.32,36,.23.23.44.46.67.68l-1.05,1.05-1,1c-16.7-17.12-43.52-28.37-72.5-35.74-.93-.24-1.88-.49-2.83-.72-12.29-3-24.91-5.34-37.28-7.14-1-.15-1.93-.28-2.9-.42-16.34-2.29-32.16-3.66-46-4.48l-2.92-.16c-23.42-1.29-40.69-1-44.52-.86H9.3l-.05-1.44v0l0-1.45c.06,0,.93,0,2.53-.06,6-.13,22.19-.28,43.24.85l2.91.16c11.22.66,23.7,1.67,36.67,3.23q4.89.58,9.61,1.27c1,.12,2,.26,2.91.4Q127.13,203.82,144.25,208Z"/><path class="cls-4" d="M55,195.85c-.11,1-.22,2-.36,3a79.35,79.35,0,0,1-1.58,8.1,78.35,78.35,0,0,1-15.59,31l1.82,2.36a81.31,81.31,0,0,0,16.61-32.68A84.4,84.4,0,0,0,57.53,199c.14-1,.26-2,.35-3a80.58,80.58,0,0,0-1.23-24.3l-2.74,1.22A78,78,0,0,1,55,195.85Z"/><path class="cls-4" d="M104.16,200.51c-.18,1-.4,2-.64,3-.06.3-.14.61-.21.91A78.78,78.78,0,0,1,55,259c.69.77,1.39,1.55,2.1,2.31a81.68,81.68,0,0,0,49.09-56.2c.1-.39.2-.79.28-1.19.24-1,.45-2,.65-3a81.28,81.28,0,0,0-4.29-45.67c-1,.25-1.9.49-2.85.75A78.26,78.26,0,0,1,104.16,200.51Z"/><path class="cls-4" d="M144.25,208c-.16,1-.35,2-.55,3s-.46,2.15-.72,3.21A79,79,0,0,1,69.58,274c1,.92,2,1.84,3,2.73a81.85,81.85,0,0,0,73.27-61.8c.27-1.06.52-2.12.72-3.19s.41-2,.59-3a81.63,81.63,0,0,0-12.53-58.62c-1.12,0-2.24.12-3.37.2A78.71,78.71,0,0,1,144.25,208Z"/><path class="cls-5" d="M188.68,437l-9.14-9.31,11.21-17.13,19.17-31.92a7.46,7.46,0,1,1,9.89,3.7c-.25.11-.51.21-.77.3l-15.83,34.07Z"/><path class="cls-6" d="M178.56,458.19a10.31,10.31,0,0,1-10.16,4.6,9.63,9.63,0,0,1-8.09-6.78,9.18,9.18,0,0,1,1-7.67c6.11-10.3,17.39-23.91,17.5-24l.18-.21,19,4.12Z"/><path class="cls-7" d="M341.23,86.77l-2.23.69L320.13,26.19A37.09,37.09,0,0,0,273.76,1.65h0L144,41.61A37.1,37.1,0,0,0,119.43,88h0L222.9,424.08a37.1,37.1,0,0,0,46.38,24.54h0l129.79-40a37.1,37.1,0,0,0,24.54-46.37h0L352.42,131.06l2.24-.68Z"/><path class="cls-4" d="M278,10.44l-16.94,5.21a13.16,13.16,0,0,1-6.31,20.92L180.42,59.46a13.15,13.15,0,0,1-17-13.74l-15.83,4.87a27.7,27.7,0,0,0-18.32,34.63l103.32,335.6a27.7,27.7,0,0,0,34.63,18.33h0L397.66,399A27.72,27.72,0,0,0,416,364.36h0L312.66,28.76A27.69,27.69,0,0,0,278,10.44Z"/><path class="cls-7" d="M803.14,743.15,498.67,633.7a29,29,0,0,1-17.44-37L640,155.14a29,29,0,0,1,37-17.44L981.43,247.15a29,29,0,0,1,17.44,37L840.15,725.71A29,29,0,0,1,803.14,743.15Z"/><path class="cls-4" d="M809.92,726,504.37,616.14A8.92,8.92,0,0,1,499,604.73L658.77,160.25a8.93,8.93,0,0,1,11.41-5.37L975.73,264.71a8.92,8.92,0,0,1,5.37,11.41L821.33,720.6A8.93,8.93,0,0,1,809.92,726Z"/><circle class="cls-4" cx="825.04" cy="200.35" r="2.46"/><circle class="cls-8" cx="272.29" cy="220.62" r="66.45"/><polygon class="cls-4" points="279.25 252.33 246.35 230.02 249.23 225.79 276.46 244.26 296.14 182.7 301 184.25 279.25 252.33"/><circle class="cls-8" cx="740.29" cy="434.62" r="84.16"/><polygon class="cls-4" points="719.99 470.38 707.9 421.52 714.19 419.96 724.2 460.42 794.86 419.1 798.13 424.68 719.99 470.38"/><polygon class="cls-5" points="193.98 686.24 205.34 686.24 210.74 642.41 193.97 642.42 193.98 686.24"/><path class="cls-9" d="M191.08,682.53h22.37a14.25,14.25,0,0,1,14.26,14.26v.46H191.08Z"/><polygon class="cls-5" points="105.51 681.32 116.74 683.02 128.64 640.5 113.91 637.99 105.51 681.32"/><path class="cls-9" d="M103.2,677.22l22.12,3.34h0a14.26,14.26,0,0,1,12,16.23l-.07.46L101,691.78Z"/><path class="cls-9" d="M171.32,479.64l26.42-5.75,14.82,42.36L213,679.82l-21.57-.14-9-132.38L125,669.63l-23.17-2.78,50.51-131.14s-2.78-23.17,6-34.75l-1.85-12Z"/><path class="cls-6" d="M146.51,448.5a9.83,9.83,0,0,1,2.71-10.36l5.58-5.08,15.75-2.65,9.84-1.79,23.35,58.27-46,5.23c-3.38-.73-4.72-2.57-2.76-6.24Z"/><path class="cls-5" d="M202.15,438.85l-1.32-13,19.46-6.36,34.92-12.93a7.46,7.46,0,1,1,5.4,9.07,7.08,7.08,0,0,1-.78-.25l-33.66,16.7Z"/><path class="cls-6" d="M181,449.1a10.3,10.3,0,0,1-10.81-2.76A9.63,9.63,0,0,1,168.09,436a9.15,9.15,0,0,1,5.58-5.35c11.21-4.22,28.52-7.8,28.69-7.83l.28-.06,12.26,15.11Z"/><circle class="cls-5" cx="163.64" cy="407.55" r="17.28"/><path class="cls-9" d="M149.65,432.17a67.18,67.18,0,0,1-8-.49l-.37-.05-2.78-15.11a25.51,25.51,0,0,1,19.05-29.4,2.37,2.37,0,0,1,2.36.73l.67-.23a20.49,20.49,0,0,1,26.1,12.61h0l.17.47-4.43,1.55a9.82,9.82,0,0,0-6.05,12.52,10.14,10.14,0,0,0,.85,1.83l4.53,7.54-.48.24A70.08,70.08,0,0,1,149.65,432.17Z"/><path class="cls-3" d="M381.77,696.89H1.93a1,1,0,0,1,0-2H381.77a1,1,0,1,1,0,2Z"/><path class="cls-10" d="M850.07,573.36a7.54,7.54,0,0,0,.94-10.62,8.34,8.34,0,0,0-.94-.94l-5.61-98.62-16,3.61,10.57,96.32a7.58,7.58,0,0,0,11,10.25Z"/><path class="cls-10" d="M915,586.2a7.51,7.51,0,0,1-.41-11.55l2-98.76,16.1,3-7.07,96.64A7.58,7.58,0,0,1,915,586.2Z"/><polygon class="cls-10" points="923.52 732.98 936.06 732.98 939.64 703.71 923.51 703.72 923.52 732.98"/><path class="cls-9" d="M920.32,728.88H945a15.75,15.75,0,0,1,15.75,15.75v.51H920.32Z"/><polygon class="cls-10" points="845.24 732.98 857.78 732.98 861.36 684.59 845.24 684.59 845.24 732.98"/><path class="cls-9" d="M842,728.88h24.71a15.75,15.75,0,0,1,15.74,15.75v.51H842Z"/><circle class="cls-10" cx="895.77" cy="400.11" r="20.52"/><path class="cls-11" d="M921.86,447.47s9.12.76,9.88,5.32,0,18.24,0,18.24,6.08,18.24,0,22.8-22,5.32-22,5.32Z"/><path class="cls-9" d="M844.33,550.84,836,564.52s3,60.05,3.8,61.57a4.49,4.49,0,0,1,.76,3v8.36l2.28,73s-6.08,3,1.53,5.32,17.48,3,19-4.56,1.59-70.92,1.52-73l.76-3,12.16-44.84,28.12,62.32,16.73,69.93s25.3,2.93,20.74-7-15.42-83.49-15.42-83.49-2.28-7.6-2.28-9.12-.76-2.28-.76-3.8-.76-6.08-.76-6.08l-5.32-47.89Z"/><path class="cls-11" d="M851.93,434.54s-9.13-.76-11.41,6.85S819.24,477.87,823,480.91s32.69,13.68,33.45,12.92S851.93,434.54,851.93,434.54Z"/><path class="cls-9" d="M919.67,387c-.86-3.2-2.07-6.41-4.55-8.62a14.14,14.14,0,0,0-9.07-3.58,28.2,28.2,0,0,0-25.41-1.44,4.57,4.57,0,0,0-2-2.06c-.24,2.11-.49,4.22-.73,6.33l-2.83-2.13c0,1.25-.09,2.5-.14,3.75L872.33,377c-.19,4.43,3.5,8.26,7.66,9.76s8.73,1.23,13.15,1c2.18-.1,4.67-.06,6.14,1.55s1.26,4.29,1.29,6.58c.06,3.22,3.36,1.64,5,4.4a6.25,6.25,0,0,1,1.29,3.17,7.58,7.58,0,0,1-1.11,2.93c-1.22,2.52-3.65,10.37-2.49,12.92l6.43-3.6C912.93,414,923.84,402.54,919.67,387Z"/><path class="cls-11" d="M915.77,491.55s15.21-38.76,14.45-41.8-19.73-15.52-19.73-15.52l-2.1-.26a3,3,0,0,0,.21-.84l.33-3a3.52,3.52,0,0,0-3.1-3.87l-24.11-2.64a3.5,3.5,0,0,0-3.86,3.1l-.28,2.58c-1.27-.32-1.33-.44-1.33-.44s-21.28,3.37-26.6,4.89-.76,59.29-.76,59.29-3.8,53.21-6.08,54.73,0,.76-2.29,6.84c-.3.8,3.9-3.68,5.71-2.66,11.86,6.69,59.95,22.32,71.83,21.66,3.79-39.63-3.81-52.44-3.81-52.44Z"/></svg>