<svg id="Layer_1" data-name="Layer 1" xmlns="http://www.w3.org/2000/svg" viewBox="0 0 1068.87 599.29"><defs><style>.cls-1,.cls-12{fill:#b9c1d7;}.cls-1{opacity:0.56;}.cls-17,.cls-18,.cls-2{fill:none;}.cls-3{fill:#f2f2f2;}.cls-15,.cls-16,.cls-4{fill:#181826;}.cls-5{fill:#3f3d56;}.cls-14,.cls-6{fill:#fff;}.cls-7{fill:#ffb8b8;}.cls-8{fill:#e5e5e5;}.cls-9{fill:#2f2e41;}.cls-10{fill:#e5a5a5;}.cls-11{fill:#b9c1d8;}.cls-13{fill:#ffb5b5;}.cls-14{stroke:#000;}.cls-14,.cls-17{stroke-miterlimit:10;}.cls-15{font-size:23.8px;}.cls-15,.cls-16{font-family:BernardMT-Condensed, Bernard MT Condensed;}.cls-16{font-size:11.58px;}.cls-17,.cls-18{stroke:#2f2e41;}.cls-18{stroke-linecap:round;stroke-linejoin:round;}</style></defs><ellipse class="cls-1" cx="928.65" cy="189.98" rx="20.04" ry="21.15"/><path class="cls-2" d="M792.08,199.69C792.08,405.86,633.73,573,438.4,573S84.71,405.86,84.71,199.69Z" transform="translate(92.58 -0.66)"/><line class="cls-2" x1="1068.87" y1="199.03" x2="884.66" y2="199.03"/><line class="cls-2" x1="177.29" y1="199.03" x2="15.46" y2="199.03"/><path class="cls-2" d="M710.64,88.19,9.85,223.08q6.69-9.53,13.79-18.72L645.57,50.52A511.31,511.31,0,0,1,710.64,88.19Z" transform="translate(92.58 -0.66)"/><path class="cls-3" d="M645.57,50.52,23.64,204.36C119.15,80.09,265,.66,428.49.66A496.12,496.12,0,0,1,645.57,50.52Z" transform="translate(92.58 -0.66)"/><path class="cls-2" d="M815.05,181.87,360.25,352.52,777.15,142A533.82,533.82,0,0,1,815.05,181.87Z" transform="translate(92.58 -0.66)"/><path class="cls-2" d="M902.28,321.46l-81.53,31.06,69.13-57.63Q896.42,308,902.28,321.46Z" transform="translate(92.58 -0.66)"/><path class="cls-3" d="M949.52,550.58H-92.58c0-122.7,38.08-236,102.43-327.5L710.64,88.19A526,526,0,0,1,777.15,142L360.25,352.52l454.8-170.65a551.65,551.65,0,0,1,74.83,113l-69.13,57.63,81.53-31.06A573.57,573.57,0,0,1,949.52,550.58Z" transform="translate(92.58 -0.66)"/><line class="cls-2" x1="116.22" y1="203.7" x2="77.72" y2="213.22"/><line class="cls-2" x1="778.28" y1="39.93" x2="738.15" y2="49.85"/><line class="cls-2" x1="102.44" y1="222.41" x2="55.83" y2="231.38"/><line class="cls-2" x1="818.95" y1="84.5" x2="803.22" y2="87.52"/><line class="cls-2" x1="879.93" y1="136.13" x2="869.73" y2="141.29"/><line class="cls-2" x1="919.02" y1="176.92" x2="907.63" y2="181.21"/><line class="cls-2" x1="992.52" y1="285.84" x2="982.46" y2="294.23"/><line class="cls-2" x1="1000.33" y1="318.71" x2="994.86" y2="320.8"/><path class="cls-4" d="M202.78,597.14H153.42C146,597.14,140,590.81,140,583V430.1c0-7.78,6-14.12,13.38-14.12h49.36c7.38,0,13.38,6.34,13.38,14.12V583c0,7.79-6,14.12-13.38,14.12Z" transform="translate(92.58 -0.66)"/><path class="cls-4" d="M686.37,597.44H637c-7.37,0-13.38-6.33-13.38-14.12V430.4c0-7.78,6-14.12,13.38-14.12h49.36c7.38,0,13.38,6.34,13.38,14.12V583.32C699.75,591.11,693.75,597.44,686.37,597.44Z" transform="translate(92.58 -0.66)"/><path class="cls-5" d="M214.48,217.18l-72.68,109a63.51,63.51,0,0,0-9.68,45.28l22.1,135.84c4.74,29.17,28.71,50.5,56.76,50.5H638.12c30.44,0,55.62-25,57.48-57.07l8.53-147a62.71,62.71,0,0,0-17-46.93L585.19,200.35A56,56,0,0,0,543,182.8l-283.1,8.61c-18.15.56-35,10.11-45.44,25.77Z" transform="translate(92.58 -0.66)"/><path class="cls-6" d="M225.56,236.52,211.66,264a26.13,26.13,0,0,0,23.7,37.89l347.95-4.08c21.37-.25,33.41-24.57,20.63-41.67L582,226.78a26.2,26.2,0,0,0-21.51-10.51l-312.14,6a26.11,26.11,0,0,0-22.82,14.29Z" transform="translate(92.58 -0.66)"/><path class="cls-5" d="M661.11,293.76a8.85,8.85,0,0,1-6.12-2.49,9.91,9.91,0,0,1-3-7.13v-6l1.15-27.78a9.33,9.33,0,0,1,9.1-9.2h36.22a9.05,9.05,0,0,1,8,5.09l4.31,8.54a10,10,0,0,1,.21,8.61,9.1,9.1,0,0,1-6.4,5.33l-27.31,6a7.77,7.77,0,0,0-5.81,5.76l-1.61,6.24a9.32,9.32,0,0,1-7.89,7c-.3,0-.6.05-.9.05Z" transform="translate(92.58 -0.66)"/><path class="cls-5" d="M171.81,293.71a9.3,9.3,0,0,1-7.88-7l-1.62-6.24a7.75,7.75,0,0,0-5.8-5.76l-27.31-6a9.11,9.11,0,0,1-6.41-5.33,10,10,0,0,1,.21-8.61l4.32-8.54a9,9,0,0,1,8-5.09h36.22a9.33,9.33,0,0,1,9.11,9.2l1.14,27.78v6a9.87,9.87,0,0,1-3,7.13,8.84,8.84,0,0,1-6.11,2.49c-.3,0-.61,0-.91-.05Z" transform="translate(92.58 -0.66)"/><ellipse class="cls-6" cx="314.71" cy="374.36" rx="35.82" ry="37.81"/><ellipse class="cls-6" cx="727.41" cy="375.15" rx="35.82" ry="37.81"/><path class="cls-7" d="M174.45,173a24.21,24.21,0,0,1,8.19,8l23.52,14.76,40,19.76s9.42-35.37,20.68-37.63,29.84,23.95,29.84,23.95-32.38,55.35-46.49,49.67-45.63-33.23-45.63-33.23l-4.11-3.53-26.19-18.39A22.7,22.7,0,0,1,163.54,193c-8.19-5-12.39-13.5-9.37-19s12.09-5.91,20.28-.92Z" transform="translate(92.58 -0.66)"/><path class="cls-8" d="M252.35,188.39,272.79,163l12.34,1.88c15.15,2.3,23.57,19.74,16.44,34l-7.12,14.25-42.1-24.76Z" transform="translate(92.58 -0.66)"/><path class="cls-5" d="M185.89,221.64l-36-52.34a1.88,1.88,0,0,1,.29-2.46l8.63-7.52a1.68,1.68,0,0,1,1.35-.4,1.73,1.73,0,0,1,1.18.79l35.74,56.61a1.89,1.89,0,0,1,.2,1.57,1.74,1.74,0,0,1-1,1.14l-8.4,3.25a1.71,1.71,0,0,1-2-.64Z" transform="translate(92.58 -0.66)"/><path class="cls-8" d="M188.75,218.44l-37.23-50.93a1.64,1.64,0,0,1,.09-2.23l7.4-6.15a1.35,1.35,0,0,1,1.21-.25,2,2,0,0,1,1.15.82l37.35,54.83A1.88,1.88,0,0,1,199,216a1.29,1.29,0,0,1-.87,1l-7.52,2.25a1.73,1.73,0,0,1-1.67-.5,2.52,2.52,0,0,1-.21-.25Z" transform="translate(92.58 -0.66)"/><polygon class="cls-7" points="266.48 536.24 250.29 573.11 223.88 560.52 244.32 532.64 266.48 536.24"/><path class="cls-9" d="M146.63,562.08l19.6-2.7s13.63,34.17,3.41,36-90.31,9.89-90.31-.9,33.22-24.28,33.22-24.28l23-17.08,11.07,9Z" transform="translate(92.58 -0.66)"/><path class="cls-4" d="M300.84,299.52s23.85,37.76-27.26,61.14l-54.53,82.73L173.9,546.79,146.63,536l47.71-156.46,27.27-70.13,12.78-21.58,66.45,11.69Z" transform="translate(92.58 -0.66)"/><polygon class="cls-7" points="254.55 530.05 236.12 565.72 210.55 551.34 232.67 524.94 254.55 530.05"/><path class="cls-9" d="M133.21,554l19.72-1.34s11.49,35,1.18,36.12-90.73,3.66-90.06-7.11,34.66-21.94,34.66-21.94l24-15.46L133.21,554Z" transform="translate(92.58 -0.66)"/><path class="cls-4" d="M303.31,302.57s21.47,39.32-31,59.14L212.81,440.5,161.36,540.58l-26.54-12.64L192.1,375.1,223.63,307l14.09-20.65,65.59,16.24Z" transform="translate(92.58 -0.66)"/><polygon class="cls-10" points="374.37 125.13 358.18 158.6 401.25 165.67 400.78 120.67 374.37 125.13"/><ellipse class="cls-7" cx="383.36" cy="107.22" rx="29.98" ry="31.64"/><path class="cls-11" d="M310.21,310.31l4.94-84.53A111.81,111.81,0,0,0,311.06,165l-1.7-20.18-39.19,2.7-16.62,28.32-15.76,67-3.4,45,75.82,22.48Z" transform="translate(92.58 -0.66)"/><path class="cls-7" d="M195.53,244.9a22.54,22.54,0,0,1,11.12,1.16l27.19-3.28L277,233s-12.78-34.17-5.11-43.16,37.49,0,37.49,0,6,64.74-8.52,69.23-55.38,2.7-55.38,2.7l-5.3-.18-31.39,2.1a23,23,0,0,1-10.5,4.05c-9.39,1.26-17.61-2.83-18.37-9.13s6.24-12.43,15.63-13.69Z" transform="translate(92.58 -0.66)"/><path class="cls-11" d="M266.33,207.35,268,174.08l10.9-6.39c13.38-7.85,30.08.65,32.6,16.58l2.5,15.89-47.71,7.19Z" transform="translate(92.58 -0.66)"/><path class="cls-5" d="M314.15,127.33s2.8-14.76-5.59-15.74S291.79,92.9,291.79,92.9s-28.94-5.32-29.88,7.46-.57,10-.57,10-6.88-3.06-4.09-15.85a24,24,0,0,1,5.11-9.88,34.27,34.27,0,0,1,30.83-12.3c4.9.6,19.48,5.5,22.29,8.85C322.94,90,326.27,117.49,314.15,127.33Z" transform="translate(92.58 -0.66)"/><path class="cls-12" d="M215.31,502.45a13.88,13.88,0,0,1-12.43-7.78,15.44,15.44,0,0,1,.56-15.31l.43.29-.43-.29,9.35-15.19a13.93,13.93,0,0,1,11.87-6.8H631.37a13.88,13.88,0,0,1,10.77,5.23l10.26,12.67a15.46,15.46,0,0,1,2.11,15.93,14,14,0,0,1-12.8,8.73l-426.32,2.52Z" transform="translate(92.58 -0.66)"/><path id="uuid-c41a9dec-9a1e-4145-9d9e-85b61b24e39c-174" class="cls-13" d="M701.91,319.15c7.48,5.17,16.07,5.28,19.18.25s-.43-13.28-7.91-18.45a21.76,21.76,0,0,0-9.91-3.87l-32-21.46-9.23,16.05,32.49,19.45a23.13,23.13,0,0,0,7.34,8Z" transform="translate(92.58 -0.66)"/><path class="cls-8" d="M611,266.27,689.41,309l6.82-19.8-53.18-44-3.54-64.15a26,26,0,0,0-10.22-19.48,23.23,23.23,0,0,0-20.79-3.79h0c-12.73,3.8-20.32,17.89-16.92,31.39l19.42,77Z" transform="translate(92.58 -0.66)"/><polygon class="cls-10" points="722.52 150.81 726.19 126.63 701.44 115.99 697.77 152.75 722.52 150.81"/><path class="cls-4" d="M552,289.08s-7.1,46.87,21.31,52.49,93.25,9.37,93.25,9.37L750,457.79l16.88-19.68L695,321l-57.73-38.43Z" transform="translate(92.58 -0.66)"/><path class="cls-4" d="M558.79,281.5s-16.57,44.12,10,56.11,89.1,30.5,89.1,30.5l59.52,123.42L738,476.18,691.81,345.34l-48.45-50.73L558.79,281.5Z" transform="translate(92.58 -0.66)"/><path class="cls-8" d="M634.6,147.56l-32-5.63L581,154.66c-12.61,19.36-13.65,80.77-16.63,104l-17.65,43.5,56-8.44,45.29-4.69-15.1-104,1.78-37.49Z" transform="translate(92.58 -0.66)"/><ellipse class="cls-13" cx="716.27" cy="107.77" rx="25.24" ry="26.63"/><path class="cls-9" d="M621.67,72.62c.73.45,1.71-.23,2-1.09a4.73,4.73,0,0,0-.31-2.61c-.46-1.42-.91-2.84-1.37-4.26-1-3-2-6.14-4.08-8.44-3.15-3.46-8.17-4.35-12.69-3.71-5.8.82-11.52,4.14-14.22,9.62s-1.54,13.13,3.33,16.55c-6.95,8.4-9.37,17.76-9,28.9s11.88,21.4,19.38,29.24c1.68-1.07,3.2-6.09,2.28-7.92s.4-3.93-.74-5.62-2.1,1-.94-.67c.72-1.06-2.12-3.48-1-4.11,5.23-3.06,7-9.94,10.26-15.21a24.36,24.36,0,0,1,17.93-11.38,16.23,16.23,0,0,1,11.37,2.74,11.52,11.52,0,0,1,4.59,10.87,10.1,10.1,0,0,0,2.55-8,9.84,9.84,0,0,0-4.45-7.07,16.44,16.44,0,0,0-3.18-14.87c-3.38-3.93-17.09-3.26-22-2.23" transform="translate(92.58 -0.66)"/><path class="cls-9" d="M620.91,92.06c-6.54.75-11.26,6.72-15.25,12.24-2.3,3.19-4.7,6.7-4.65,10.7s2.62,7.51,3.85,11.34a17.73,17.73,0,0,1-4.71,18c4.7,1,9.79-2.78,10.6-7.76,1-5.8-3.22-11.4-2.72-17.27.43-5.16,4.29-9.14,7.57-13s6.36-9,4.85-13.92" transform="translate(92.58 -0.66)"/><path id="uuid-602720ae-55fd-41d2-82ec-6c1c04ce2ad1-175" class="cls-13" d="M681.85,324.16c7.48,5.17,16.07,5.28,19.19.25s-.43-13.28-7.92-18.45a21.76,21.76,0,0,0-9.91-3.87l-32-21.46L642,296.68l32.49,19.45A23,23,0,0,0,681.85,324.16Z" transform="translate(92.58 -0.66)"/><path class="cls-8" d="M590.94,271.28l78.42,42.77,6.82-19.8-53.19-44-3.54-64.15a26,26,0,0,0-10.21-19.48,23.24,23.24,0,0,0-20.79-3.79h0c-12.74,3.8-20.33,17.89-16.93,31.39l19.42,77Z" transform="translate(92.58 -0.66)"/><path class="cls-9" d="M720.26,475l1.81,1.1s12.43-7.5,18.65,0,10.66,26.24,10.66,26.24,25.75,22.5,10.65,22.5c-11.36,0-38.32-13.28-51-19.85a9.45,9.45,0,0,1-4.35-11.52c1.31-3.71,3-7.6,4.69-8.94s2.89-4.45,3.56-7.14a3.57,3.57,0,0,1,5.29-2.39Z" transform="translate(92.58 -0.66)"/><path class="cls-9" d="M754.89,439.36l1.82,1.09s12.43-7.5,18.64,0S786,466.7,786,466.7s25.75,22.49,10.66,22.49c-11.37,0-38.33-13.28-51-19.84a9.47,9.47,0,0,1-4.34-11.53c1.31-3.7,3-7.59,4.69-8.93s2.88-4.45,3.55-7.15a3.57,3.57,0,0,1,5.29-2.38Z" transform="translate(92.58 -0.66)"/><rect class="cls-14" x="446.62" y="461.5" width="124.39" height="35.48" rx="6.51"/><ellipse class="cls-1" cx="103.53" cy="140.82" rx="29.14" ry="30.75"/><ellipse class="cls-1" cx="48.32" cy="154.48" rx="20.65" ry="21.79"/><text class="cls-15" transform="translate(473.34 490.87) scale(1.01 1)">NA-8967</text><text class="cls-16" transform="translate(458.72 474.71) scale(0.95 1)">wp</text><path class="cls-5" d="M831.31,475.37s74.07,26.55,63.92,76l-15.9.32Z" transform="translate(92.58 -0.66)"/><path class="cls-11" d="M926.87,475.37s-74.08,26.55-63.93,76l15.91.32Z" transform="translate(92.58 -0.66)"/><path class="cls-17" d="M-11.32,422.45S-46.5,448.57-48.43,549.77v.82" transform="translate(92.58 -0.66)"/><path class="cls-9" d="M-39.49,403s-5.91,21.42,11,34.79l.36.4A33.9,33.9,0,0,0-39.49,403Z" transform="translate(92.58 -0.66)"/><path class="cls-9" d="M12.06,431.93s-20.35-6.05-32.88,11.9l-.38.38S-2.06,451,12.06,431.93Z" transform="translate(92.58 -0.66)"/><ellipse class="cls-11" cx="89.04" cy="411.69" rx="7.78" ry="8.21"/><ellipse class="cls-11" cx="99.96" cy="475.11" rx="7.7" ry="8.13"/><path class="cls-18" d="M-3.35,480.52s-19,3.62-26.53,72.57" transform="translate(92.58 -0.66)"/><path class="cls-9" d="M17.52,497.43s-16.87-5.88-30.87,9.13l.5.31S5.28,513.38,17.52,497.43Z" transform="translate(92.58 -0.66)"/></svg>