<?xml version="1.0" encoding="utf-8"?>
<!-- Generator: Adobe Illustrator 25.2.3, SVG Export Plug-In . SVG Version: 6.00 Build 0)  -->
<svg version="1.1" id="Layer_1" xmlns="http://www.w3.org/2000/svg" xmlns:xlink="http://www.w3.org/1999/xlink" x="0px" y="0px"
	 viewBox="0 0 892.9 584.2" style="enable-background:new 0 0 892.9 584.2;" xml:space="preserve">
<style type="text/css">
	.st0{opacity:0.56;fill:#B9C1D7;}
	.st1{fill:none;}
	.st2{fill:#F2F2F2;}
	.st3{fill:#181826;}
	.st4{fill:#3F3D56;}
	.st5{fill:#FFFFFF;}
	.st6{fill:#FFB8B8;}
	.st7{fill:#E5E5E5;}
	.st8{fill:#2F2E41;}
	.st9{fill:#E5A5A5;}
	.st10{fill:#B9C1D8;}
	.st11{fill:#B9C1D7;}
	.st12{fill:#FFB5B5;}
	.st13{fill:#FFFFFF;stroke:#000000;stroke-miterlimit:10;}
	.st14{font-family:'BernardMT-Condensed';}
	.st15{font-size:23.8035px;}
	.st16{font-size:11.5773px;}
	.st17{fill:none;stroke:#2F2E41;stroke-miterlimit:10;}
	.st18{fill:none;stroke:#2F2E41;stroke-linecap:round;stroke-linejoin:round;stroke-miterlimit:10;}
</style>
<ellipse class="st0" cx="836.1" cy="190.6" rx="20" ry="21.2"/>
<path class="st1" d="M792.1,199.7c0,206.2-158.4,373.3-353.7,373.3C243.1,573,84.7,405.9,84.7,199.7H792.1z"/>
<line class="st1" x1="976.3" y1="199.7" x2="792.1" y2="199.7"/>
<line class="st1" x1="84.7" y1="199.7" x2="-77.1" y2="199.7"/>
<path class="st1" d="M710.6,88.2L9.9,223.1c4.5-6.4,9-12.6,13.8-18.7L645.6,50.5C668.2,61.5,689.9,74.1,710.6,88.2z"/>
<path class="st2" d="M645.6,50.5L23.6,204.4C119.1,80.1,265,0.7,428.5,0.7C506,0.7,579.5,18.5,645.6,50.5z"/>
<path class="st1" d="M815.1,181.9L360.2,352.5L777.2,142C790.4,154.6,803.1,167.9,815.1,181.9z"/>
<path class="st1" d="M902.3,321.5l-81.5,31.1l69.1-57.6C894.2,303.6,898.4,312.5,902.3,321.5z"/>
<path class="st2" d="M949.5,550.6H-92.6c0-122.7,38.1-236,102.4-327.5L710.6,88.2c23.5,16,45.8,34,66.5,53.8L360.2,352.5
	l454.8-170.7c29.2,34.1,54.4,72,74.8,113l-69.1,57.6l81.5-31.1C932.6,391.2,949.5,468.8,949.5,550.6z"/>
<line class="st1" x1="23.6" y1="204.4" x2="-14.9" y2="213.9"/>
<line class="st1" x1="685.7" y1="40.6" x2="645.6" y2="50.5"/>
<line class="st1" x1="9.9" y1="223.1" x2="-36.8" y2="232"/>
<line class="st1" x1="726.4" y1="85.2" x2="710.6" y2="88.2"/>
<line class="st1" x1="787.4" y1="136.8" x2="777.2" y2="142"/>
<line class="st1" x1="826.4" y1="177.6" x2="815.1" y2="181.9"/>
<line class="st1" x1="899.9" y1="286.5" x2="889.9" y2="294.9"/>
<line class="st1" x1="907.7" y1="319.4" x2="902.3" y2="321.5"/>
<g>
	<path class="st3" d="M202.8,597.1h-49.4c-7.4,0-13.4-6.3-13.4-14.1V430.1c0-7.8,6-14.1,13.4-14.1h49.4c7.4,0,13.4,6.3,13.4,14.1
		V583C216.2,590.8,210.2,597.1,202.8,597.1L202.8,597.1z"/>
	<path class="st3" d="M686.4,597.4H637c-7.4,0-13.4-6.3-13.4-14.1V430.4c0-7.8,6-14.1,13.4-14.1h49.4c7.4,0,13.4,6.3,13.4,14.1
		v152.9C699.8,591.1,693.8,597.4,686.4,597.4z"/>
	<path class="st4" d="M214.5,217.2l-72.7,109c-8.8,13.1-12.2,29.4-9.7,45.3l22.1,135.8c4.7,29.2,28.7,50.5,56.8,50.5h427.1
		c30.4,0,55.6-25,57.5-57.1l8.5-147c1-17.5-5.2-34.6-17-46.9l-102-106.4c-11.2-11.7-26.4-18-42.2-17.5l-283.1,8.6
		C241.8,192,224.9,201.5,214.5,217.2L214.5,217.2z"/>
	<path class="st5" d="M225.6,236.5L211.7,264c-8.9,17.5,4.1,38.1,23.7,37.9l348-4.1c21.4-0.3,33.4-24.6,20.6-41.7L582,226.8
		c-5.1-6.8-13.1-10.7-21.5-10.5l-312.1,6C238.7,222.4,229.9,227.9,225.6,236.5L225.6,236.5z"/>
	<path class="st4" d="M661.1,293.8c-2.2,0-4.4-0.9-6.1-2.5c-1.9-1.8-3-4.4-3-7.1l0-6l1.1-27.8c0.2-5.2,4.2-9.2,9.1-9.2h36.2
		c3.4,0,6.5,2,8,5.1l4.3,8.5c1.4,2.7,1.4,5.8,0.2,8.6c-1.2,2.8-3.6,4.7-6.4,5.3l-27.3,6c-2.8,0.6-5,2.8-5.8,5.8l-1.6,6.2
		c-1,3.8-4.2,6.6-7.9,7C661.7,293.7,661.4,293.8,661.1,293.8L661.1,293.8z"/>
	<path class="st4" d="M171.8,293.7c-3.7-0.4-6.9-3.2-7.9-7l-1.6-6.2c-0.8-2.9-3-5.1-5.8-5.8l-27.3-6c-2.8-0.6-5.2-2.6-6.4-5.3
		c-1.2-2.8-1.2-5.9,0.2-8.6l4.3-8.5c1.6-3.1,4.7-5.1,8-5.1h36.2c4.9,0,8.9,4,9.1,9.2l1.1,27.8l0,6c0,2.7-1.1,5.3-3,7.1
		c-1.7,1.6-3.9,2.5-6.1,2.5C172.4,293.8,172.1,293.7,171.8,293.7L171.8,293.7z"/>
	<ellipse class="st5" cx="222.1" cy="375" rx="35.8" ry="37.8"/>
	<ellipse class="st5" cx="634.8" cy="375.8" rx="35.8" ry="37.8"/>
	<path class="st6" d="M174.5,173c3.3,1.9,6.1,4.7,8.2,8l23.5,14.8l40,19.8c0,0,9.4-35.4,20.7-37.6c11.3-2.3,29.8,23.9,29.8,23.9
		s-32.4,55.3-46.5,49.7s-45.6-33.2-45.6-33.2l-4.1-3.5l-26.2-18.4c-3.8-0.2-7.4-1.4-10.7-3.5c-8.2-5-12.4-13.5-9.4-19
		C157.2,168.5,166.3,168,174.5,173L174.5,173z"/>
	<path class="st7" d="M252.3,188.4l20.4-25.4l12.3,1.9c15.1,2.3,23.6,19.7,16.4,34l-7.1,14.2L252.3,188.4L252.3,188.4z"/>
	<path class="st4" d="M185.9,221.6l-36-52.3c-0.5-0.8-0.4-1.9,0.3-2.5l8.6-7.5c0.4-0.3,0.9-0.5,1.3-0.4c0.5,0.1,0.9,0.4,1.2,0.8
		l35.7,56.6c0.3,0.5,0.4,1,0.2,1.6c-0.2,0.5-0.5,0.9-1,1.1l-8.4,3.2c-0.6,0.2-1.3,0.1-1.8-0.4C186,221.8,186,221.7,185.9,221.6
		L185.9,221.6z"/>
	<path class="st7" d="M188.7,218.4l-37.2-50.9c-0.6-0.8-0.5-1.7,0.1-2.2l7.4-6.1c0.3-0.3,0.8-0.4,1.2-0.2c0.4,0.1,0.9,0.4,1.2,0.8
		l37.3,54.8c0.3,0.5,0.4,1,0.3,1.5c-0.1,0.5-0.4,0.8-0.9,1l-7.5,2.3c-0.6,0.2-1.2,0-1.7-0.5C188.9,218.6,188.8,218.5,188.7,218.4
		L188.7,218.4z"/>
	<polygon class="st6" points="173.9,536.9 157.7,573.8 131.3,561.2 151.7,533.3 	"/>
	<path class="st8" d="M146.6,562.1l19.6-2.7c0,0,13.6,34.2,3.4,36c-10.2,1.8-90.3,9.9-90.3-0.9s33.2-24.3,33.2-24.3l23-17.1
		L146.6,562.1L146.6,562.1z"/>
	<path class="st3" d="M300.8,299.5c0,0,23.9,37.8-27.3,61.1L219,443.4l-45.2,103.4L146.6,536l47.7-156.5l27.3-70.1l12.8-21.6
		L300.8,299.5L300.8,299.5z"/>
	<polygon class="st6" points="162,530.7 143.5,566.4 118,552 140.1,525.6 	"/>
	<path class="st8" d="M133.2,554l19.7-1.3c0,0,11.5,35,1.2,36.1c-10.3,1.1-90.7,3.7-90.1-7.1c0.7-10.8,34.7-21.9,34.7-21.9l24-15.5
		L133.2,554L133.2,554z"/>
	<path class="st3" d="M303.3,302.6c0,0,21.5,39.3-31,59.1l-59.5,78.8l-51.4,100.1l-26.5-12.6l57.3-152.8l31.5-68.1l14.1-20.7
		L303.3,302.6L303.3,302.6L303.3,302.6z"/>
	<polygon class="st9" points="281.8,125.8 265.6,159.3 308.7,166.3 308.2,121.3 	"/>
	<ellipse class="st6" cx="290.8" cy="107.9" rx="30" ry="31.6"/>
	<path class="st10" d="M310.2,310.3l4.9-84.5c4.3-20.2,2.9-41.3-4.1-60.7l-1.7-20.2l-39.2,2.7l-16.6,28.3l-15.8,67l-3.4,45
		L310.2,310.3L310.2,310.3z"/>
	<path class="st6" d="M195.5,244.9c3.7-0.6,7.6-0.2,11.1,1.2l27.2-3.3L277,233c0,0-12.8-34.2-5.1-43.2c7.7-9,37.5,0,37.5,0
		s6,64.7-8.5,69.2c-14.5,4.5-55.4,2.7-55.4,2.7l-5.3-0.2l-31.4,2.1c-3.1,2.2-6.7,3.6-10.5,4.1c-9.4,1.3-17.6-2.8-18.4-9.1
		C179.1,252.3,186.1,246.2,195.5,244.9L195.5,244.9z"/>
	<path class="st10" d="M266.3,207.4l1.7-33.3l10.9-6.4c13.4-7.8,30.1,0.7,32.6,16.6l2.5,15.9L266.3,207.4L266.3,207.4z"/>
	<path class="st4" d="M314.2,127.3c0,0,2.8-14.8-5.6-15.7s-16.8-18.7-16.8-18.7s-28.9-5.3-29.9,7.5s-0.6,9.9-0.6,9.9
		s-6.9-3.1-4.1-15.8c0.8-3.7,2.7-7,5.1-9.9c7.6-9.3,19.3-13.7,30.8-12.3c4.9,0.6,19.5,5.5,22.3,8.8
		C322.9,90,326.3,117.5,314.2,127.3z"/>
	<path class="st11" d="M215.3,502.4c-5.3,0-9.9-2.9-12.4-7.8c-2.5-4.9-2.3-10.6,0.6-15.3l0.4,0.3l-0.4-0.3l9.4-15.2
		c2.6-4.3,7.1-6.8,11.9-6.8h406.7c4.1,0,8.1,1.9,10.8,5.2l10.3,12.7c3.6,4.5,4.4,10.6,2.1,15.9c-2.3,5.4-7.2,8.7-12.8,8.7
		L215.3,502.4L215.3,502.4L215.3,502.4z"/>
	<g>
		<path id="uuid-c41a9dec-9a1e-4145-9d9e-85b61b24e39c-174" class="st12" d="M701.9,319.2c7.5,5.2,16.1,5.3,19.2,0.3
			c3.1-5-0.4-13.3-7.9-18.5c-3-2.1-6.4-3.4-9.9-3.9l-32-21.5l-9.2,16l32.5,19.5C696.4,314.4,698.9,317.1,701.9,319.2L701.9,319.2z"
			/>
		<path class="st7" d="M611,266.3l78.4,42.8l6.8-19.8l-53.2-44l-3.5-64.2c-0.4-7.8-4.2-14.9-10.2-19.5c-6.1-4.5-13.6-5.9-20.8-3.8
			l0,0c-12.7,3.8-20.3,17.9-16.9,31.4L611,266.3L611,266.3z"/>
	</g>
	<polygon class="st9" points="629.9,151.5 633.6,127.3 608.9,116.6 605.2,153.4 	"/>
	<path class="st3" d="M552,289.1c0,0-7.1,46.9,21.3,52.5c28.4,5.6,93.2,9.4,93.2,9.4L750,457.8l16.9-19.7L695,321l-57.7-38.4
		L552,289.1z"/>
	<path class="st3" d="M558.8,281.5c0,0-16.6,44.1,10,56.1c26.6,12,89.1,30.5,89.1,30.5l59.5,123.4l20.5-15.4l-46.1-130.8l-48.4-50.7
		L558.8,281.5L558.8,281.5z"/>
	<path class="st7" d="M634.6,147.6l-32-5.6L581,154.7c-12.6,19.4-13.7,80.8-16.6,104l-17.6,43.5l55.9-8.4l45.3-4.7l-15.1-104
		L634.6,147.6L634.6,147.6C634.6,147.6,634.6,147.6,634.6,147.6z"/>
	<g>
		<ellipse class="st12" cx="623.7" cy="108.4" rx="25.2" ry="26.6"/>
		<path class="st8" d="M621.7,72.6c0.7,0.4,1.7-0.2,1.9-1.1c0.2-0.9,0-1.8-0.3-2.6c-0.5-1.4-0.9-2.8-1.4-4.3c-1-3-2-6.1-4.1-8.4
			c-3.2-3.5-8.2-4.4-12.7-3.7c-5.8,0.8-11.5,4.1-14.2,9.6s-1.5,13.1,3.3,16.5c-6.9,8.4-9.4,17.8-9,28.9s11.9,21.4,19.4,29.2
			c1.7-1.1,3.2-6.1,2.3-7.9c-0.9-1.8,0.4-3.9-0.7-5.6c-1.1-1.7-2.1,1-0.9-0.7c0.7-1.1-2.1-3.5-1-4.1c5.2-3.1,7-9.9,10.3-15.2
			c4-6.4,10.7-10.7,17.9-11.4c4-0.4,8.1,0.3,11.4,2.7c3.2,2.4,5.3,6.8,4.6,10.9c1.9-2.1,2.9-5.1,2.6-8c-0.4-2.9-2.1-5.6-4.5-7.1
			c1.5-5.1,0.2-10.9-3.2-14.9s-17.1-3.3-22-2.2"/>
		<path class="st8" d="M620.9,92.1c-6.5,0.7-11.3,6.7-15.2,12.2c-2.3,3.2-4.7,6.7-4.6,10.7c0.1,4,2.6,7.5,3.8,11.3
			c2,6.3,0.1,13.7-4.7,18c4.7,0.9,9.8-2.8,10.6-7.8c0.9-5.8-3.2-11.4-2.7-17.3c0.4-5.2,4.3-9.1,7.6-13c3.3-3.9,6.4-9,4.9-13.9"/>
	</g>
	<path id="uuid-602720ae-55fd-41d2-82ec-6c1c04ce2ad1-175" class="st12" d="M681.9,324.2c7.5,5.2,16.1,5.3,19.2,0.3
		c3.1-5-0.4-13.3-7.9-18.5c-3-2.1-6.4-3.4-9.9-3.9l-32-21.5l-9.2,16l32.5,19.5C676.3,319.4,678.8,322.1,681.9,324.2z"/>
	<path class="st7" d="M590.9,271.3l78.4,42.8l6.8-19.8l-53.2-44l-3.5-64.2c-0.4-7.8-4.2-14.9-10.2-19.5c-6.1-4.5-13.6-5.9-20.8-3.8
		l0,0c-12.7,3.8-20.3,17.9-16.9,31.4L590.9,271.3L590.9,271.3z"/>
	<path class="st8" d="M720.3,475l1.8,1.1c0,0,12.4-7.5,18.6,0c6.2,7.5,10.7,26.2,10.7,26.2s25.8,22.5,10.7,22.5
		c-11.4,0-38.3-13.3-51-19.8c-4-2.1-5.9-7.1-4.3-11.5c1.3-3.7,3-7.6,4.7-8.9c1.8-1.4,2.9-4.5,3.6-7.1
		C715.6,474.9,718.2,473.7,720.3,475L720.3,475z"/>
	<path class="st8" d="M754.9,439.4l1.8,1.1c0,0,12.4-7.5,18.6,0c6.2,7.5,10.7,26.2,10.7,26.2s25.8,22.5,10.7,22.5
		c-11.4,0-38.3-13.3-51-19.8c-4-2.1-5.9-7.1-4.3-11.5c1.3-3.7,3-7.6,4.7-8.9c1.8-1.4,2.9-4.5,3.6-7.1
		C750.2,439.3,752.8,438.1,754.9,439.4L754.9,439.4z"/>
</g>
<path class="st13" d="M471.9,497.7H360.6c-3.6,0-6.5-2.9-6.5-6.5v-22.5c0-3.6,2.9-6.5,6.5-6.5h111.4c3.6,0,6.5,2.9,6.5,6.5v22.5
	C478.4,494.7,475.5,497.7,471.9,497.7z"/>
<ellipse class="st0" cx="10.9" cy="141.5" rx="29.1" ry="30.8"/>
<ellipse class="st0" cx="-44.3" cy="155.1" rx="20.6" ry="21.8"/>
<text transform="matrix(1.006 0 0 1 380.7618 491.531)" class="st3 st14 st15">NA-8967</text>
<text transform="matrix(0.9475 0 0 1 366.1397 475.3748)" class="st3 st14 st16">wp</text>
<path class="st4" d="M831.3,475.4c0,0,74.1,26.5,63.9,75.9c-15.9,0.3-15.9,0.3-15.9,0.3L831.3,475.4z"/>
<path class="st10" d="M926.9,475.4c0,0-74.1,26.5-63.9,75.9c15.9,0.3,15.9,0.3,15.9,0.3L926.9,475.4z"/>
<path class="st17" d="M-11.3,422.5c0,0-35.2,26.1-37.1,127.3c0,0.8,0,0.8,0,0.8"/>
<path class="st8" d="M-39.5,403c0,0-5.9,21.4,11,34.8c0.4,0.4,0.4,0.4,0.4,0.4S-21.6,418-39.5,403z"/>
<path class="st8" d="M12.1,431.9c0,0-20.3-6.1-32.9,11.9c-0.4,0.4-0.4,0.4-0.4,0.4S-2.1,451,12.1,431.9z"/>
<ellipse class="st10" cx="-3.5" cy="412.4" rx="7.8" ry="8.2"/>
<ellipse class="st10" cx="7.4" cy="475.8" rx="7.7" ry="8.1"/>
<path class="st18" d="M-3.4,480.5c0,0-19,3.6-26.5,72.6"/>
<path class="st8" d="M17.5,497.4c0,0-16.9-5.9-30.9,9.1c0.5,0.3,0.5,0.3,0.5,0.3S5.3,513.4,17.5,497.4z"/>
</svg>
